<svg width="232" height="232" viewBox="0 0 232 232" fill="none" xmlns="http://www.w3.org/2000/svg">
<g clip-path="url(#clip0_2_105)">
<path d="M231.5 1V0.5H231H1H0.5V1V231V231.5H1H231H231.5V231V1ZM40.5 25C40.5 33.0082 34.0082 39.5 26 39.5C17.9918 39.5 11.5 33.0082 11.5 25C11.5 16.9918 17.9918 10.5 26 10.5C34.0082 10.5 40.5 16.9918 40.5 25ZM220.5 25C220.5 33.0082 214.008 39.5 206 39.5C197.992 39.5 191.5 33.0082 191.5 25C191.5 16.9918 197.992 10.5 206 10.5C214.008 10.5 220.5 16.9918 220.5 25ZM40.5 205C40.5 213.008 34.0082 219.5 26 219.5C17.9918 219.5 11.5 213.008 11.5 205C11.5 196.992 17.9918 190.5 26 190.5C34.0082 190.5 40.5 196.992 40.5 205ZM220.5 205C220.5 213.008 214.008 219.5 206 219.5C197.992 219.5 191.5 213.008 191.5 205C191.5 196.992 197.992 190.5 206 190.5C214.008 190.5 220.5 196.992 220.5 205ZM209.5 111C209.5 162.639 167.639 204.5 116 204.5C64.3613 204.5 22.5 162.639 22.5 111C22.5 59.3613 64.3613 17.5 116 17.5C167.639 17.5 209.5 59.3613 209.5 111Z" fill="white" stroke="white"/>
<path d="M86.1408 40.4913C83.4501 43.6224 84.3052 46.0504 88.4132 47.8184C95.1895 50.6263 99.1099 51.0329 99.4831 48.9164C99.8562 46.7999 101.995 46.7975 103.33 48.9305C104.559 50.8551 111.409 54.0555 111.62 52.8592C111.944 51.0187 109.511 47.8381 107.575 47.4967C106.469 47.3017 105.598 46.5789 105.728 45.8427C106.069 43.9102 103.588 42.6188 101.286 43.5414C100.083 43.8985 98.9603 43.7954 98.7648 43.2865C98.7077 42.8021 95.9175 41.6459 92.9241 40.8334C88.4583 39.4767 87.0431 39.4169 86.1408 40.4913Z" fill="white"/>
<path d="M82.1287 53.542C81.6751 57.7317 82.0821 58.6574 84.8724 59.8136C86.5888 60.5907 90.1515 61.4087 92.7054 61.4794C96.3817 61.6533 97.3087 61.2474 97.617 59.499C97.8442 58.2107 98.714 57.3204 99.4054 57.4423C100.235 57.5886 100.675 58.3303 100.545 59.0664C100.415 59.8026 101.546 60.6662 102.929 60.91C104.45 61.1782 106.475 61.82 107.671 62.3155C110.445 63.5637 110.915 60.8951 108.426 58.8431C107.295 57.9795 105.204 56.0926 103.617 54.5794C101.192 52.1593 100.656 51.9697 98.7528 53.0575C97.6389 53.715 96.3457 53.7716 96.012 53.2384C95.6783 52.7051 92.4733 51.4758 88.943 50.4738L82.5576 48.6837L82.1287 53.542Z" fill="white"/>
<path d="M98.9201 63.4291C98.2209 64.1598 95.6671 64.089 90.1523 63.0217L82.2868 61.5399L81.9792 64.9015C81.2751 72.9372 84.3017 75.1788 94.4678 74.1249C98.9653 73.6844 99.754 73.2542 99.5416 71.2242C99.215 68.2252 101.191 67.53 102.721 70.1719C103.462 71.6308 104.934 72.1751 108.717 72.5573C113.206 72.9695 113.515 72.8342 112.563 70.9584C111.895 69.8919 109.91 68.2134 107.95 67.2036C105.973 66.2857 103.939 64.8834 103.499 64.1417C102.254 62.3091 100.164 62.0354 98.9201 63.4291Z" fill="white"/>
<path d="M104.619 76.3892C104.408 77.5855 103.481 77.9914 101.976 77.6311C100.61 77.2953 96.8601 76.729 93.6798 76.1682C86.7336 75.1332 86.1402 76.0723 88.4783 84.6445C89.6677 89.2188 90.3838 90.0093 93.4259 90.5457C95.3617 90.887 99.2412 90.7171 102.063 90.0761C106.504 89.1512 107.016 88.6722 106.811 85.7896C106.614 82.0545 108.671 80.8991 110.291 83.8414C111.26 85.6252 112.073 85.8636 116.522 85.6992C119.247 85.6103 121.621 85.0802 121.735 84.436C121.995 82.9637 116.902 79.5038 113.721 78.943C112.477 78.7236 111.069 77.8113 110.784 77.0019C109.913 74.666 105.009 74.1807 104.619 76.3892Z" fill="white"/>
<path d="M113.409 91.2228C113.328 91.6829 112.556 92.0211 111.726 91.8748C110.897 91.7286 108.538 92.1666 106.424 92.8375C104.309 93.5084 101.121 93.8002 99.3237 93.4833C96.8347 93.0444 95.9239 93.3582 95.6319 95.0146C95.4209 96.2109 95.7469 97.5967 96.3571 98.1787C96.9512 98.8528 97.5374 100.379 97.5868 101.716C97.6129 105.611 105.649 106.933 112.399 104.233C115.009 103.175 115.895 102.193 115.561 100.047C115.234 97.0477 117.161 96.6285 118.814 99.3868C119.693 100.87 120.644 101.133 124.247 100.914C126.695 100.777 128.94 100.983 129.306 101.332C129.656 101.773 130.185 101.202 130.379 100.098C130.769 97.8893 124.935 92.9705 122.056 93.127C121.039 93.2324 119.966 92.8533 119.632 92.32C118.737 90.9287 113.62 90.0265 113.409 91.2228Z" fill="white"/>
<path d="M122.135 106.425C121.973 107.345 121.217 107.591 120.436 107.169C119.809 106.679 117.792 106.797 116.263 107.382C114.58 108.034 111.27 108.209 108.748 107.954C103.169 107.255 102.437 108.17 103.831 114.014C104.996 119.533 106.111 120.488 111.772 120.727C119.14 120.983 122.678 119.519 123.278 116.114C123.911 112.526 126.35 111.627 127.108 114.607C127.556 116.11 128.459 116.648 130.736 116.67C132.444 116.687 135.259 116.899 137.056 117.215C138.716 117.508 140.196 117.2 140.325 116.464C140.715 114.255 135.971 109.623 132.181 108.481C130.017 107.814 127.056 106.818 125.461 106.157C123.07 105.166 122.33 105.32 122.135 106.425Z" fill="white"/>
<path d="M130.983 123.356C130.439 124.019 129.561 124.149 128.78 123.726C128.137 123.328 125.29 123.301 122.517 123.666C119.451 124.074 115.929 123.832 114.042 123.215C109.487 121.558 108.3 123.436 109.75 129.764C110.891 134.615 111.119 134.939 115.91 136.069C124.125 137.992 132.38 135.652 131.695 131.451C131.36 129.305 135.248 129.896 135.721 132.066C136.12 133.845 136.779 134.151 142.684 134.622C146.19 134.956 149.297 135.124 149.589 135.081C149.898 134.946 149.45 133.443 148.466 131.752C146.756 128.509 144.446 127.058 139.883 126.253C138.5 126.009 137.32 125.422 137.401 124.962C137.661 123.489 132.057 122.122 130.983 123.356Z" fill="white"/>
<path d="M135.334 140.727C134.245 142.053 133.798 142.164 133.13 141.098C132.341 139.915 131.511 139.769 128.429 140.269C125.038 140.904 121.182 140.13 116.309 137.847C112.771 136.085 110.527 139.105 110.701 145.398L110.711 150.998L116.194 152.249C123.734 153.958 132.16 153.072 133.785 150.322C135.223 147.824 135.793 147.83 138.649 150.231C140.496 151.885 141.602 152.08 146.758 151.945C149.914 151.838 152.736 151.197 152.849 150.552C153.109 149.08 147.633 143.75 145.559 143.384C144.729 143.238 143.183 142.301 142.207 141.37C139.506 138.901 136.708 138.598 135.334 140.727Z" fill="white"/>
<path d="M135.179 157.779C134.431 158.786 133.52 159.1 133.048 158.542C132.715 158.009 129.323 157.031 125.467 156.256C121.734 155.598 116.959 154.377 114.95 153.643C110.655 152.126 110.809 152.059 107.381 160.183C105.114 165.761 105.098 165.853 108.392 167.383C112.484 169.243 125.888 170.848 128.93 169.771C130.133 169.414 131.19 168.272 131.352 167.352C131.758 165.051 134.093 165.558 136.607 168.278C138.267 170.184 139.756 170.636 145.368 171.151C155.608 172.103 154.94 169.423 142.215 159.114C137.952 155.801 136.723 155.489 135.179 157.779Z" fill="white"/>
<path d="M107.149 168.777C104.481 169.35 98.6221 180.747 100.209 182.26C101.673 183.657 115.233 186.807 120.064 186.9C122.203 186.897 124.488 186.067 125.594 184.649L127.553 182.432L129.913 185.22C131.801 187.451 133.655 188.252 139.032 189.295C145.238 190.484 145.824 190.398 146.181 188.373C146.684 185.521 135.398 174.327 132.226 174.527C131.055 174.7 129.925 175.45 129.762 176.37C129.348 177.91 129.348 177.91 128.241 176.102C127.362 174.618 126.012 174.19 122.336 174.016C118.814 173.775 116.374 173.06 113.298 171.095C110.728 169.503 108.198 168.487 107.149 168.777Z" fill="white"/>
</g>
<defs>
<clipPath id="clip0_2_105">
<rect width="232" height="232" fill="white"/>
</clipPath>
</defs>
</svg>
